<?xml version="1.0" encoding="UTF-8" standalone="no"?>
<!-- Created with Inkscape (http://www.inkscape.org/) -->

<svg
   xmlns:dc="http://purl.org/dc/elements/1.1/"
   xmlns:cc="http://creativecommons.org/ns#"
   xmlns:rdf="http://www.w3.org/1999/02/22-rdf-syntax-ns#"
   xmlns:svg="http://www.w3.org/2000/svg"
   xmlns="http://www.w3.org/2000/svg"
   xmlns:sodipodi="http://sodipodi.sourceforge.net/DTD/sodipodi-0.dtd"
   xmlns:inkscape="http://www.inkscape.org/namespaces/inkscape"
   width="128"
   height="128"
   viewBox="0 0 33.866666 33.866664"
   version="1.1"
   id="svg8"
   inkscape:version="0.92.4 (5da689c313, 2019-01-14)"
   sodipodi:docname="icon-off.svg"
   inkscape:export-filename="D:\StarCitizenWikiRedirect\icons\icon-off_128.png"
   inkscape:export-xdpi="96"
   inkscape:export-ydpi="96">
  <defs
     id="defs2" />
  <sodipodi:namedview
     id="base"
     pagecolor="#ffffff"
     bordercolor="#666666"
     borderopacity="1.0"
     inkscape:pageopacity="0.0"
     inkscape:pageshadow="2"
     inkscape:zoom="2.8"
     inkscape:cx="-46.370597"
     inkscape:cy="20.6518"
     inkscape:document-units="mm"
     inkscape:current-layer="layer1"
     showgrid="false"
     fit-margin-top="8"
     fit-margin-left="8"
     fit-margin-right="8"
     fit-margin-bottom="8"
     inkscape:window-width="2560"
     inkscape:window-height="1377"
     inkscape:window-x="1072"
     inkscape:window-y="485"
     inkscape:window-maximized="1"
     units="px" />
  <metadata
     id="metadata5">
    <rdf:RDF>
      <cc:Work
         rdf:about="">
        <dc:format>image/svg+xml</dc:format>
        <dc:type
           rdf:resource="http://purl.org/dc/dcmitype/StillImage" />
        <dc:title></dc:title>
      </cc:Work>
    </rdf:RDF>
  </metadata>
  <g
     inkscape:label="Layer 1"
     inkscape:groupmode="layer"
     id="layer1"
     transform="translate(0.33831199,-3.4605384)">
    <g
       id="g4587"
       transform="matrix(0.21857601,0,0,0.21983137,1.7946389,5.6652025)"
       style="fill:#ac0000;fill-opacity:1;stroke:#ffffff;stroke-opacity:0.49767444"
       inkscape:export-xdpi="96"
       inkscape:export-ydpi="96">
      <path
         id="path4549"
         d="m 10.9,47.8 -2.6,2 v 1.5 l 2.1,2.1 h 2.4 l 3.6,-3.6 -2,-2 z"
         class="st0"
         inkscape:connector-curvature="0"
         style="fill:#ac0000;fill-opacity:1;stroke:#ffffff;stroke-opacity:0.49767444" />
      <path
         id="path4551"
         d="m 10,49.9 c -0.3,0 -0.6,0.3 -0.6,0.6 0,0.3 0.3,0.6 0.6,0.6 0.3,0 0.6,-0.3 0.6,-0.6 0,-0.3 -0.3,-0.6 -0.6,-0.6 z M 40,39.7 c 0.4,0.8 0.6,1.7 0.5,2.6 l -0.8,1.6 h 2.2 V 39.6 H 40 Z m 18.3,7.5 -0.8,-0.8 C 57,45.9 56.3,45.3 55.8,44.8 a 5.23,5.23 0 0 1 -1,-5.1 c 0.5,-1.2 2.9,-9.1 3.5,-11 l -7.9,-2.3 -0.2,0.8 c 0,0.1 0,0.1 0.2,0.3 0.2,0.2 0.3,0.5 0.3,0.8 -0.1,0.7 -1.1,1.2 -1.6,1.3 -0.2,0.1 -0.5,0.2 -0.6,0.5 -0.1,0.3 -0.1,0.7 0.1,1 V 31 31.3 l -0.1,0.1 c -0.2,0.3 -1.2,3 -1.6,4 l -0.3,0.8 c -0.1,0.3 -0.2,0.5 -0.3,0.7 -0.6,1.8 -2.9,1.8 -3,1.8 h -0.4 c -0.1,0 -0.1,0 -0.2,-0.1 V 44 H 44 c 0.5,0 1.1,0.1 1.6,0.2 l 4.5,1.3 c 0.6,0 2.4,0 2.9,0.1 0.7,0.1 1.3,0.5 1.8,0.9 0.5,0.4 0.7,1.1 0.7,1.7 0,0.4 0.4,0.6 0.9,0.6 h 1.2 l 0.9,-1.1 z m -8.7,-7.1 c -0.3,0.8 -1.8,0.2 -1.5,-0.5 0,0 2.8,-7.9 3,-8.5 0.2,-0.6 1.8,-0.1 1.6,0.5 -0.1,0.3 -2.8,7.8 -3.1,8.5 z"
         class="st0"
         inkscape:connector-curvature="0"
         style="fill:#ac0000;fill-opacity:1;stroke:#ffffff;stroke-opacity:0.49767444" />
      <path
         id="path4553"
         d="m 49,38.5 c 0,0 -0.4,1.2 -0.5,1.4 -0.1,0.2 0.5,0.4 0.6,0.2 0.1,-0.2 0.5,-1.3 0.5,-1.4 0.1,-0.2 -0.5,-0.4 -0.6,-0.2 z m 0.7,-1.8 c 0,0 -0.5,1.2 -0.6,1.4 -0.1,0.2 0.5,0.4 0.6,0.2 0.1,-0.2 0.5,-1.3 0.5,-1.3 0.1,-0.3 -0.4,-0.5 -0.5,-0.3 z m 0.6,-1.8 c 0,0 -0.4,1.1 -0.5,1.3 -0.1,0.2 0.5,0.4 0.6,0.2 0.1,-0.2 0.4,-1.2 0.5,-1.3 0.1,-0.2 -0.6,-0.4 -0.6,-0.2 z m 0.6,-1.7 c 0,0 -0.4,1.1 -0.5,1.3 -0.1,0.2 0.5,0.4 0.6,0.2 0.1,-0.2 0.4,-1.1 0.4,-1.2 C 51.6,33.1 51,33 50.9,33.2 Z m 0.7,-1.8 c 0,0 -0.4,1.1 -0.5,1.3 -0.1,0.2 0.5,0.4 0.6,0.2 0.1,-0.2 0.4,-1.2 0.4,-1.2 0.2,-0.3 -0.5,-0.5 -0.5,-0.3 z m 11.5,-8.6 c 0,0 -0.1,-0.1 -0.3,-0.2 -0.8,-0.2 -9.6,-2.2 -10.2,-2.3 -0.3,0 -0.5,0.2 -0.6,0.4 0,0.1 -0.1,0.3 -0.1,0.4 -0.2,0.8 -0.4,1.9 -1.4,1.9 -0.1,0 -0.3,0 -0.4,-0.1 l -12.9,-4.8 -5.1,4.6 c -0.1,0 -0.1,0.1 -0.2,0.1 -0.1,0 -0.7,-0.5 -0.9,-0.3 l -0.6,0.6 -1.4,1.4 c 0.1,0.3 0,0.6 -0.2,0.8 -0.2,0.2 -0.6,0.3 -0.8,0.1 l -2.4,2.2 c -0.2,0.2 0.2,0.7 0,1 -0.2,0.3 -0.6,0.2 -0.7,0.3 -0.1,0 -2.5,2.1 -2.5,2.2 l -0.8,0.1 c -0.3,0.2 -2.6,2.4 -2.8,2.5 -0.2,0.1 -0.6,0.5 -0.4,1 0.1,0.3 0.2,0.4 0,0.6 0,0 -1.5,1.3 -2.1,2 -0.3,0.3 -0.1,1 -0.6,1.4 -0.4,0.4 -1.5,1.3 -1.6,1.4 -0.5,0.5 -0.5,0.7 -0.2,1.1 0.4,0.5 0.7,0.7 1,0.7 0.3,0 0.6,-0.1 0.8,-0.3 0.2,-0.1 1.3,-0.8 1.4,-1 0.2,-0.2 0.5,-0.3 0.8,-0.3 h 1.9 l 1.1,-0.9 c 1,-0.8 4.2,-3.8 4.6,-4.2 0.7,-1.2 1.3,-2.5 1.9,-3.8 v -0.1 l 0.3,-0.5 v -0.1 c 0.1,-0.1 0.2,-0.2 0.3,-0.2 h 0.6 l 2.2,-1.8 v -0.1 c 0,-0.3 0.2,-0.5 0.4,-0.6 0.1,-0.1 0.3,-0.1 0.4,-0.1 h 0.2 l 1.7,-1.6 c 0.4,-0.2 0.5,-0.8 0.3,-1.1 l -0.1,-0.1 c -0.1,-0.1 0,-0.3 0.1,-0.3 l 0.1,-0.1 2.6,-2.4 0.1,-0.1 c 0.1,0 0.1,-0.1 0.2,-0.1 h 0.1 L 50,25.5 58.7,28.2 62,27 c 0.3,-1 0.9,-3.1 1,-3.6 v -0.1 c 0.1,-0.2 0.2,-0.5 0.1,-0.5 z m -9.5,1.5 c -0.5,0 -0.9,-0.4 -0.9,-0.9 0,-0.5 0.4,-0.9 0.9,-0.9 0.5,0 0.9,0.4 0.9,0.9 0,0.5 -0.4,0.9 -0.9,0.9 z M 9,57.1 9.8,56.9 c 0.1,0 0.1,-0.1 0.1,-0.1 V 53.7 L 9.1,52.9 Z"
         class="st0"
         inkscape:connector-curvature="0"
         style="fill:#ac0000;fill-opacity:1;stroke:#ffffff;stroke-opacity:0.49767444" />
      <path
         id="path4555"
         d="m 55.2,49 c -0.4,-0.1 -0.4,-0.6 -0.4,-0.8 -0.2,-1.1 -1.1,-1.9 -2.2,-2 -0.5,-0.1 -2.8,-0.1 -2.8,-0.1 l -3.3,-1 -1.3,-0.4 C 44.8,44.6 44.3,44.5 43.9,44.5 H 36.6 C 35.8,44.1 35.3,43.2 35.5,42.3 35.3,42.2 35,42 35,41.6 h -0.5 v -0.1 c -0.1,-0.4 -0.4,-0.7 -0.8,-0.7 h -0.3 v -0.1 c -0.1,-0.3 0,-1.2 -0.7,-1.2 H 32.5 L 32.4,39.4 32.3,39.3 C 32.2,39.1 32.1,39 31.5,39 h -3.3 c 0,0 -0.8,0 -0.8,0.5 v 0.3 h -6.2 l -1.2,1 h -2 c -0.2,0 -0.4,0 -0.6,0.1 -0.2,0.2 -1.6,1.1 -1.6,1.1 -0.3,0.2 -0.6,0.3 -0.9,0.3 h -0.2 c -1.1,-0.1 -1.3,-1 -1.8,-1 -0.2,0 -0.3,0.2 -0.4,0.4 -0.3,0.6 -0.5,1.2 -0.7,1.9 -0.1,0.4 -0.3,1.9 -0.4,2.5 h 0.7 v 0.6 l -0.5,0.5 h 2.6 c 0.2,0 0.3,0.1 0.5,0.2 l 1.6,1.5 0.4,0.4 c 0,-0.1 0.1,-0.2 0.1,-0.3 v -0.6 c 0,-0.6 0.5,-1 1.1,-1 h 2.7 c 0.3,0 0.4,-0.2 0.6,-0.6 0,-0.1 0.1,-0.1 0.1,-0.2 0.2,-0.4 0.7,-0.7 1.1,-0.6 h 4.8 l 2.7,1.3 5.7,0.1 c 0.4,0 0,1.3 1.8,1.3 h 11 c 0.3,0 0.6,-0.2 0.7,-0.6 0.2,-0.4 0.6,-0.6 1,-0.6 h 1.1 l 0.1,1.9 v 3.3 h 0.5 c 0.4,0 0.5,0 1.1,-0.6 0.6,-0.6 2.2,-2.3 2.3,-2.5 0.1,-0.1 0.1,-0.1 0.1,-0.2 0.1,-0.2 0,-0.3 -0.1,-0.4 z m -37,-4.8 h -1.1 c -0.6,0 -0.8,0 -0.8,0.2 v 1.3 h -0.9 v -1.9 c 0,-0.5 0.7,-0.6 1,-0.6 h 1.8 z m 4.5,0 h -2.4 v -0.9 h 2.4 z m 8.8,1.7 c -0.9,0.2 -1.8,0.2 -2.6,-0.1 -0.7,-0.3 -1.4,-0.7 -2,-1.1 -0.6,-0.3 -1.3,-0.5 -2.1,-0.5 v -1 c 0.8,0 1.5,0.2 2.3,0.4 0.2,0.1 1,0.6 1.5,0.9 0.7,0.4 1.6,0.6 2.4,0.4 0.2,-0.1 0.4,-0.1 0.6,-0.1 0.7,0.2 0.6,1 -0.1,1.1 z m 6.5,1.2 c -0.4,0 -0.8,-0.4 -0.8,-0.8 0,-0.4 0.4,-0.8 0.8,-0.8 0.4,0 0.8,0.4 0.8,0.8 0,0.4 -0.4,0.8 -0.8,0.8 z m 10,0.8 c -0.4,0 -0.8,-0.4 -0.8,-0.8 0,-0.4 0.4,-0.8 0.8,-0.8 0.4,0 0.8,0.4 0.8,0.8 0,0.5 -0.4,0.8 -0.8,0.8 z"
         class="st0"
         inkscape:connector-curvature="0"
         style="fill:#ac0000;fill-opacity:1;stroke:#ffffff;stroke-opacity:0.49767444" />
      <path
         id="path4557"
         d="m 57,49.4 -4,4.8 h -2.2 v 1.3 c 0,0.1 -0.1,0.2 -0.2,0.2 h -5.5 c -0.1,0 -0.2,-0.1 -0.2,-0.2 v -1.3 h -0.6 v 0.9 H 32.6 v -0.9 h -2.7 v 0.5 h -4.4 l -2.8,3.2 h -8.4 l -0.4,-0.6 -0.1,-0.1 h -1.2 c -0.1,0 -0.2,0 -0.2,-0.3 v -0.1 c 0,-0.3 0.1,-0.3 0.2,-0.3 h 0.6 c 0.1,0 0.1,0 0.1,-0.1 V 56.2 L 13.2,56 C 12.8,55.4 12.7,55.2 12.7,55.2 12.6,55.1 12.6,55 12.6,54.9 v -0.3 c 0.1,-0.2 0.1,-0.3 0.3,-0.4 L 17.1,50 c 0.3,-0.4 0.4,-0.7 0.4,-1.5 C 17.4,48 18,48 18,48 h 2.6 c 0.7,0 1,-0.7 1.2,-1 l 0.1,-0.1 v -0.1 c 0.1,-0.2 0.2,-0.3 0.6,-0.3 h 4.6 c 0,0 2.7,1.3 2.8,1.3 l 5.4,0.1 c 0.2,0 0.2,1.3 2.2,1.3 h 11 c 0.6,0 1.1,-0.4 1.3,-0.9 C 49.9,48.1 50,48 50.2,48 h 0.5 l 0.1,1.3 v 3.3 c 0,0.4 0.3,0.6 0.8,0.6 H 52 c 0.8,0 1.1,-0.4 1.7,-0.9 0.6,-0.6 2.1,-2.4 2.2,-2.5 0,-0.1 0.1,-0.3 0.1,-0.4 z m -46.1,36.3 -2.6,-2 v -1.5 l 2.1,-2.1 h 2.4 l 3.6,3.6 -2,2 z"
         class="st0"
         inkscape:connector-curvature="0"
         style="fill:#ac0000;fill-opacity:1;stroke:#ffffff;stroke-opacity:0.49767444" />
      <path
         id="path4559"
         d="m 10,83.6 c -0.3,0 -0.6,-0.3 -0.6,-0.6 0,-0.3 0.3,-0.6 0.6,-0.6 0.3,0 0.6,0.3 0.6,0.6 0,0.4 -0.3,0.6 -0.6,0.6 z m 30,10.2 c 0.4,-0.8 0.6,-1.7 0.5,-2.6 l -0.8,-1.6 h 2.2 v 4.3 z m 17.5,-9.1 h -1.2 c -0.6,0 -0.9,0.2 -0.9,0.6 0,0.6 -0.3,1.2 -0.7,1.7 -0.5,0.5 -1.1,0.8 -1.8,0.9 -0.5,0.1 -2.3,0 -2.9,0.1 l -4.5,1.4 c -0.5,0.2 -1,0.3 -1.6,0.2 h -1.2 v 5.3 c 0.1,0 0.1,-0.1 0.2,-0.1 h 0.4 c 0.1,0 2.3,0 3,1.8 0.1,0.2 0.2,0.5 0.3,0.7 l 0.3,0.8 c 0.4,1 1.4,3.8 1.6,4 l 0.1,0.1 v 0.4 c -0.2,0.3 -0.2,0.7 -0.1,1 0.1,0.2 0.3,0.4 0.6,0.5 0.5,0.2 1.6,0.6 1.6,1.3 0,0.3 -0.1,0.6 -0.3,0.8 -0.1,0.2 -0.2,0.2 -0.2,0.3 l 0.2,0.8 7.9,-2.4 c -0.6,-1.9 -3.1,-9.7 -3.5,-11 -0.6,-1.8 -0.2,-3.7 1,-5.1 0.5,-0.5 1.2,-1.1 1.7,-1.6 l 0.8,-0.8 0.1,-0.5 -0.9,-1.1 z m -6.4,17.8 c -0.2,-0.6 -3,-8.5 -3,-8.5 -0.3,-0.7 1.2,-1.3 1.5,-0.5 0.3,0.8 3,8.2 3.1,8.5 0.2,0.6 -1.4,1.1 -1.6,0.5 z"
         class="st0"
         inkscape:connector-curvature="0"
         style="fill:#ac0000;fill-opacity:1;stroke:#ffffff;stroke-opacity:0.49767444" />
      <path
         id="path4561"
         d="m 49,95 c 0,0 -0.4,-1.2 -0.5,-1.4 -0.1,-0.2 0.5,-0.4 0.6,-0.2 0.1,0.2 0.5,1.3 0.5,1.4 0.1,0.2 -0.5,0.4 -0.6,0.2 z m 0.7,1.9 c 0,0 -0.5,-1.2 -0.6,-1.4 -0.1,-0.2 0.5,-0.4 0.6,-0.2 0.1,0.2 0.5,1.3 0.5,1.3 0.1,0.3 -0.4,0.4 -0.5,0.3 z m 0.6,1.7 c 0,0 -0.4,-1.1 -0.5,-1.3 -0.1,-0.2 0.5,-0.4 0.6,-0.2 0.1,0.2 0.4,1.2 0.5,1.3 0.1,0.3 -0.6,0.4 -0.6,0.2 z m 0.6,1.7 c 0,0 -0.4,-1.1 -0.5,-1.3 -0.1,-0.2 0.5,-0.4 0.6,-0.2 0.1,0.2 0.4,1.1 0.4,1.2 0.2,0.4 -0.4,0.5 -0.5,0.3 z m 0.7,1.8 c 0,0 -0.4,-1.1 -0.5,-1.3 -0.1,-0.2 0.5,-0.4 0.6,-0.2 0.1,0.2 0.4,1.2 0.4,1.2 0.2,0.4 -0.5,0.5 -0.5,0.3 z m 11.4,8 c -0.2,-0.6 -0.8,-2.7 -1,-3.7 l -3.3,-1.2 -8.7,2.7 -13.1,3.7 h -0.1 c -0.1,0 -0.1,0 -0.2,-0.1 l -0.1,-0.1 -2.6,-2.4 -0.1,-0.1 c -0.1,-0.1 -0.1,-0.2 -0.1,-0.3 l 0.1,-0.1 c 0.2,-0.4 0.1,-0.9 -0.3,-1.1 l -1.7,-1.6 h -0.2 c -0.2,0 -0.3,0 -0.4,-0.1 -0.2,-0.1 -0.4,-0.4 -0.4,-0.6 V 105 l -2.2,-1.8 H 28 c -0.1,0 -0.2,-0.1 -0.3,-0.2 v -0.1 l -0.2,-0.5 v -0.1 C 26.9,101 26.3,99.7 25.6,98.5 25.2,98.1 22,95.2 21,94.3 L 19.9,93.4 H 18 c -0.3,0 -0.6,-0.1 -0.8,-0.3 -0.2,-0.1 -1.3,-0.8 -1.4,-1 -0.3,-0.2 -0.5,-0.3 -0.8,-0.3 -0.3,0 -0.6,0.2 -1,0.7 -0.3,0.4 -0.3,0.6 0.2,1.1 0.1,0.1 1.1,0.9 1.6,1.4 0.5,0.5 0.3,1.1 0.6,1.4 0.6,0.6 2.1,2 2.1,2 0.2,0.2 0.1,0.3 0,0.6 -0.2,0.5 0.3,0.8 0.4,1 0.1,0.1 2.5,2.3 2.8,2.5 l 0.8,0.1 2.5,2.2 c 0,0 0.5,0 0.7,0.3 0.2,0.3 -0.2,0.8 0,1 l 2.4,2.2 c 0.3,-0.1 0.6,-0.1 0.8,0.1 0.2,0.2 0.3,0.5 0.2,0.8 l 1.4,1.3 0.6,0.6 c 0.2,0.2 0.8,-0.3 0.9,-0.3 0.1,0 0.1,0 0.2,0.1 l 5.1,4.6 12.9,-4.8 c 0.1,0 0.3,-0.1 0.4,-0.1 1,0 1.3,1.2 1.4,1.9 0,0.1 0.1,0.3 0.1,0.4 0,0.3 0.3,0.5 0.6,0.4 0.5,-0.1 9.3,-2 10.2,-2.3 0.3,-0.1 0.3,-0.2 0.3,-0.2 0,-0.1 0,-0.5 -0.2,-0.7 z m -9.4,0.9 c -0.5,0 -0.9,-0.4 -0.9,-0.9 0,-0.5 0.4,-0.9 0.9,-0.9 0.5,0 0.9,0.4 0.9,0.9 0,0.5 -0.4,0.9 -0.9,0.9 z M 9,76.4 9.8,76.6 c 0.1,0 0.1,0.1 0.1,0.1 v 3.1 l -0.8,0.8 z"
         class="st0"
         inkscape:connector-curvature="0"
         style="fill:#ac0000;fill-opacity:1;stroke:#ffffff;stroke-opacity:0.49767444" />
      <path
         id="path4563"
         d="M 55.4,83.9 C 55.3,83.7 53.7,82 53.1,81.4 52.4,80.8 52.4,80.9 52,80.8 h -0.5 v 3.3 l -0.1,2 h -1.1 c -0.4,0 -0.8,-0.2 -1,-0.6 -0.1,-0.3 -0.4,-0.5 -0.7,-0.6 h -11 c -1.8,0 -1.4,1.3 -1.8,1.3 L 30,86.3 27.3,87.6 H 22.5 C 22,87.7 21.6,87.4 21.4,87 c 0,-0.1 -0.1,-0.1 -0.1,-0.2 -0.2,-0.4 -0.4,-0.6 -0.6,-0.6 H 18 c -0.6,0.1 -1.1,-0.3 -1.2,-0.9 v -0.7 c 0,-0.1 0,-0.2 -0.1,-0.3 l -0.4,0.4 -1.6,1.5 c -0.1,0.1 -0.3,0.2 -0.5,0.2 h -2.7 l 0.5,0.5 v 0.6 h -0.7 c 0.1,0.6 0.3,2.1 0.4,2.5 0.2,0.6 0.4,1.2 0.7,1.9 0.1,0.2 0.2,0.4 0.4,0.4 0.5,0.1 0.7,-0.8 1.8,-1 h 0.2 c 0.3,0 0.7,0.1 0.9,0.3 0,0 1.4,0.9 1.6,1.1 0.2,0.1 0.4,0.1 0.6,0.1 H 20 l 1.2,1 h 6.1 V 94 c 0.1,0.5 0.8,0.5 0.8,0.5 h 3.2 c 0.6,0 0.6,-0.1 0.8,-0.3 l 0.1,-0.1 0.1,-0.1 h 0.2 c 0.7,0 0.7,-0.9 0.7,-1.2 v -0.1 h 0.3 c 0.4,0 0.8,-0.3 0.8,-0.7 v -0.1 h 0.5 c 0,-0.3 0.3,-0.6 0.6,-0.7 -0.2,-0.9 0.3,-1.8 1.1,-2.2 h 7.3 c 0.5,0 0.9,-0.1 1.3,-0.2 l 1.3,-0.4 3.3,-1 c 0,0 2.3,0 2.8,-0.1 1.1,-0.1 2.1,-1 2.2,-2.1 0,-0.2 0,-0.7 0.4,-0.8 0.2,0 0.3,-0.2 0.3,-0.3 0.1,0 0.1,-0.1 0,-0.2 z m -37.2,6.4 h -1.8 c 0,0 -1,-0.1 -1,-0.6 v -1.9 h 0.9 v 1.3 c 0,0 0.3,0.2 0.8,0.2 h 1.1 z m 4.5,0 h -2.4 v -0.9 h 2.4 z m 8.9,-1.7 c -0.2,0 -0.4,0 -0.6,-0.1 -0.8,-0.2 -1.7,0 -2.4,0.4 -0.5,0.4 -1.3,0.8 -1.5,0.9 -0.7,0.3 -1.5,0.4 -2.3,0.4 v -1 c 0.7,0 1.4,-0.2 2.1,-0.5 0.6,-0.4 1.3,-0.8 2,-1.1 0.8,-0.3 1.7,-0.3 2.6,-0.2 0.7,0.3 0.8,1.1 0.1,1.2 z M 38,88 c -0.4,0 -0.8,-0.4 -0.8,-0.8 0,-0.4 0.4,-0.8 0.8,-0.8 0.4,0 0.8,0.4 0.8,0.8 0,0.4 -0.3,0.8 -0.8,0.8 z m 10,-0.9 c -0.4,0 -0.8,-0.4 -0.8,-0.8 0,-0.4 0.4,-0.8 0.8,-0.8 0.4,0 0.8,0.4 0.8,0.8 0,0.5 -0.4,0.8 -0.8,0.8 z"
         class="st0"
         inkscape:connector-curvature="0"
         style="fill:#ac0000;fill-opacity:1;stroke:#ffffff;stroke-opacity:0.49767444" />
      <path
         id="path4565"
         d="M 57,84.1 53,79.3 H 50.8 V 78 c 0,-0.1 -0.1,-0.2 -0.2,-0.2 h -5.5 c -0.1,0 -0.2,0.1 -0.2,0.2 v 1.3 H 44.3 V 78.4 H 32.6 v 0.9 h -2.7 v -0.5 h -4.4 l -2.8,-3.2 h -8.4 l -0.4,0.6 -0.1,0.1 h -1.2 c -0.1,0 -0.2,0 -0.2,0.3 v 0.1 c 0,0.3 0.1,0.3 0.2,0.3 h 0.6 c 0.1,0 0.1,0 0.1,0.1 v 0.2 l -0.2,0.3 c -0.4,0.6 -0.5,0.8 -0.5,0.8 -0.1,0.1 -0.1,0.2 -0.1,0.3 V 79 c 0.1,0.2 0.1,0.3 0.3,0.4 l 4.2,4.2 c 0.3,0.4 0.4,0.7 0.4,1.5 0,0.4 0.6,0.4 0.6,0.4 h 2.6 c 0.7,0 1,0.7 1.2,1 l 0.1,0.1 v 0.1 C 22,86.9 22,87 22.5,87 h 4.6 c 0,0 2.7,-1.3 2.8,-1.3 l 5.5,-0.1 c 0.2,0 0.2,-1.3 2.2,-1.3 h 11 c 0.6,0 1.1,0.4 1.3,0.9 0.1,0.2 0.2,0.3 0.4,0.3 h 0.5 l 0.1,-1.3 v -0.3 -3 c 0,-0.4 0.3,-0.6 0.8,-0.6 H 52 c 0.8,0 1.1,0.4 1.7,0.9 0.6,0.5 2.1,2.4 2.2,2.5 0,0.1 0.1,0.3 0.1,0.4 z M 93.7,48.5 h 4 v 3.2 h -4 z m 10.4,0 h 4 v 2.4 h -4 z M 93.3,79.1 h 4 v 6.3 h -4 z m -10.4,0 h 4 v 6.3 h -4 z"
         class="st0"
         inkscape:connector-curvature="0"
         style="fill:#ac0000;fill-opacity:1;stroke:#ffffff;stroke-opacity:0.49767444" />
      <path
         id="path4567"
         d="M 67.2,0.1 H 67 c -0.2,7.9 -1,20 -1,19.9 0.4,0 1.4,-0.1 1.9,-0.1 H 69 c 16.5,0.4 31.7,9.1 40.3,23.2 h -4.8 C 96.5,31.5 83.5,24.4 69.4,23.9 h -1.5 c 0,0 -1.7,0.1 -2.2,0.1 0,-0.2 -3.6,22.9 -6.3,28.3 C 52.3,66.8 14.6,65.5 0,67.7 c 14.2,1.1 45.9,-0.7 55.4,9.2 6.3,5.6 10.2,34.6 10.2,34.3 0.6,0 1.7,0.1 2.3,0.1 h 1.7 c 14.6,-0.5 28,-8.2 35.8,-20.5 h 4.7 c -8.4,14.8 -23.9,24.1 -40.9,24.5 h -3.3 c 0,0 0.6,12.7 0.7,18.6 h 1.2 C 105,133.6 135,103.8 135,67 135,30 104.7,0 67.2,0.1 Z m 34.5,46.8 h 7.2 c 0.8,-0.1 1.5,0.4 1.6,1.2 v 2.8 c 0.1,0.8 -0.4,1.5 -1.2,1.6 h -0.4 l 1.6,4 h -2.4 l -1.6,-4 h -2.4 v 4 h -2.4 z m 6.4,23.2 v 1.6 h -8.8 v -1.6 l 5.6,-6.3 h -5.6 v -1.6 h 8.8 v 1.6 l -5.6,6.3 z M 91.2,48.5 c -0.1,-0.8 0.4,-1.5 1.2,-1.6 h 6 c 0.8,-0.1 1.5,0.4 1.6,1.2 v 8.3 h -2.4 v -3.2 h -4 v 3.2 h -2.4 z m 6.5,13.7 v 9.5 H 95.3 V 62.2 Z M 80.8,46.9 h 8.8 v 1.6 h -3.2 v 7.9 H 84 v -7.9 h -3.2 z m 0,15.3 h 2.4 v 9.5 H 80.8 Z M 79.2,79.1 H 76 V 87 h -2.4 v -7.9 h -3.2 v -1.6 h 8.8 z m 0,-15.3 h -6.4 v 6.3 h 6.4 v 1.6 H 72 c -0.8,0.1 -1.5,-0.4 -1.6,-1.2 v -6.7 c -0.1,-0.8 0.4,-1.5 1.2,-1.6 h 7.6 z m 0,-15.3 h -6.4 v 2 l 4.8,0.8 c 0.8,-0.1 1.5,0.4 1.6,1.2 v 2.4 c 0.1,0.8 -0.4,1.5 -1.2,1.6 h -7.6 v -1.6 h 6.4 v -2 L 72,52.1 c -0.8,0.1 -1.5,-0.4 -1.6,-1.2 v -2.4 c -0.1,-0.8 0.4,-1.5 1.2,-1.6 h 7.6 z m 10.1,36.9 c 0.1,0.8 -0.4,1.5 -1.2,1.6 h -6 c -0.8,0.1 -1.5,-0.4 -1.6,-1.2 v -6.7 c -0.1,-0.8 0.4,-1.5 1.2,-1.6 h 6 c 0.8,-0.1 1.5,0.4 1.6,1.2 z M 90.4,71.7 H 88 v -7.9 h -3.2 v -1.6 h 8.8 v 1.6 h -3.2 z m 9.4,13.7 c 0.1,0.8 -0.4,1.5 -1.2,1.6 h -6 C 91.8,87.1 91.1,86.6 91,85.8 v -6.7 c -0.1,-0.8 0.4,-1.5 1.2,-1.6 h 6 c 0.8,-0.1 1.5,0.5 1.5,1.3 v 0.3 z M 110.2,87 H 103 c -0.8,0.1 -1.5,-0.4 -1.6,-1.2 v -8.3 h 2.4 v 7.9 h 6.4 z m -0.5,-16.9 v -6.3 c -0.1,-0.8 0.4,-1.5 1.2,-1.6 h 7.6 v 1.6 h -6.4 v 2.3 h 4.8 v 1.6 h -4.8 v 2.4 h 6.4 v 1.6 h -7.2 c -0.8,0.1 -1.5,-0.4 -1.6,-1.2 z m 10.9,9 h -6.4 v 2 l 4.8,0.8 c 0.8,-0.1 1.5,0.4 1.6,1.2 v 2.4 c 0.1,0.8 -0.4,1.5 -1.2,1.6 h -7.6 v -1.6 h 6.4 v -2 l -4.8,-0.8 c -0.8,0.1 -1.5,-0.4 -1.6,-1.2 v -2.4 c -0.1,-0.8 0.4,-1.5 1.2,-1.6 h 7.6 z m 5.2,-7.4 -4,-7.1 v 7.1 h -1.6 v -9.5 h 3.2 l 4,7.1 v -7.1 h 1.6 v 9.5 z"
         class="st0"
         inkscape:connector-curvature="0"
         style="fill:#ac0000;fill-opacity:1;stroke:#ffffff;stroke-opacity:0.49767444" />
    </g>
  </g>
  <style
     id="style4547">.st0{fill:#231f20}</style>
</svg>
